<?xml version="1.0" encoding="utf-8"?>
<svg xmlns="http://www.w3.org/2000/svg" xmlns:xlink="http://www.w3.org/1999/xlink" style="margin: auto; background: rgb(241, 242, 243); display: block; z-index: 1; position: relative; --darkreader-inline-bgimage: initial; --darkreader-inline-bgcolor:#1f2223; shape-rendering: auto;" width="1920" height="922" preserveAspectRatio="xMidYMid" viewBox="0 0 1920 922" data-darkreader-inline-bgimage="" data-darkreader-inline-bgcolor="">
<g transform="translate(960,461) scale(1,-1) translate(-960,-461)"><path d="M-100 396.71C-63.36 409.55 -61.56 417.81 -26.9 417.81S9.92 403.01 46.21 403.01S84.91 415.78 119.31 415.78S158.25 407.06 192.41 407.06S230.7 418.93 265.52 418.93S303.7 416.6 338.62 416.6S376.62 419.45 411.72 419.45S450.11 397.83 484.83 397.83S522.79 396.49 557.93 396.49S595.3 408.5 631.03 408.5S669.39 413.17 704.14 413.17S740.73 416 777.24 416S815.27 416.15 850.34 416.15S887.38 412.74 923.45 412.74S960.68 416.18 996.55 416.18S1034.67 413.9 1069.66 413.9S1108.61 412.15 1142.76 412.15S1179.48 417.23 1215.86 417.23S1254.21 405.04 1288.97 405.04S1325.57 405.72 1362.07 405.72S1398.67 402.37 1435.17 402.37S1472.2 398.48 1508.28 398.48S1546.27 419.09 1581.38 419.09S1618.21 412.5 1654.48 412.5S1692.05 403.94 1727.59 403.94S1766.16 412.45 1800.69 412.45S1837.67 399.16 1873.79 399.16S1912.33 407.02 1946.9 407.02S1983.69 415.63 2020 415.63S2057.94 411.23 2093.1 411.23L2020 922 L-100 922 Z" fill="#5f2a62" stroke-width="0" data-darkreader-inline-fill="" style="--darkreader-inline-fill:#4c224e;">
  <animate attributeName="d" dur="8.910891089108912s" repeatCount="indefinite" values="M-100 396.71C-63.36 409.55 -61.56 417.81 -26.9 417.81S9.92 403.01 46.21 403.01S84.91 415.78 119.31 415.78S158.25 407.06 192.41 407.06S230.7 418.93 265.52 418.93S303.7 416.6 338.62 416.6S376.62 419.45 411.72 419.45S450.11 397.83 484.83 397.83S522.79 396.49 557.93 396.49S595.3 408.5 631.03 408.5S669.39 413.17 704.14 413.17S740.73 416 777.24 416S815.27 416.15 850.34 416.15S887.38 412.74 923.45 412.74S960.68 416.18 996.55 416.18S1034.67 413.9 1069.66 413.9S1108.61 412.15 1142.76 412.15S1179.48 417.23 1215.86 417.23S1254.21 405.04 1288.97 405.04S1325.57 405.72 1362.07 405.72S1398.67 402.37 1435.17 402.37S1472.2 398.48 1508.28 398.48S1546.27 419.09 1581.38 419.09S1618.21 412.5 1654.48 412.5S1692.05 403.94 1727.59 403.94S1766.16 412.45 1800.69 412.45S1837.67 399.16 1873.79 399.16S1912.33 407.02 1946.9 407.02S1983.69 415.63 2020 415.63S2057.94 411.23 2093.1 411.23L2020 922 L-100 922 Z;M-100 413.12C-63 415.27 -60.96 402.47 -26.9 402.47S10.85 419.54 46.21 419.54S83.08 399.66 119.31 399.66S156.66 403.41 192.41 403.41S230.54 400.18 265.52 400.18S303.65 418.32 338.62 418.32S376.2 396.63 411.72 396.63S448.35 403.49 484.83 403.49S523.67 416.39 557.93 416.39S597.04 407.39 631.03 407.39S668.43 401.84 704.14 401.84S742.97 404.63 777.24 404.63S814.58 400.15 850.34 400.15S888.98 403.33 923.45 403.33S962.15 398.39 996.55 398.39S1034.55 412.75 1069.66 412.75S1107.22 420.31 1142.76 420.31S1180.89 405.01 1215.86 405.01S1253.02 401.74 1288.97 401.74S1326.27 407.54 1362.07 407.54S1398.64 402.74 1435.17 402.74S1472.97 406.42 1508.28 406.42S1545.34 419.41 1581.38 419.41S1619.68 399.94 1654.48 399.94S1691.19 404.65 1727.59 404.65S1765.45 412.6 1800.69 412.6S1839.63 406.6 1873.79 406.6S1911.21 416.3 1946.9 416.3S1985.65 405.68 2020 405.68S2057.85 415.16 2093.1 415.16L2020 922 L-100 922 Z;M-100 396.71C-63.36 409.55 -61.56 417.81 -26.9 417.81S9.92 403.01 46.21 403.01S84.91 415.78 119.31 415.78S158.25 407.06 192.41 407.06S230.7 418.93 265.52 418.93S303.7 416.6 338.62 416.6S376.62 419.45 411.72 419.45S450.11 397.83 484.83 397.83S522.79 396.49 557.93 396.49S595.3 408.5 631.03 408.5S669.39 413.17 704.14 413.17S740.73 416 777.24 416S815.27 416.15 850.34 416.15S887.38 412.74 923.45 412.74S960.68 416.18 996.55 416.18S1034.67 413.9 1069.66 413.9S1108.61 412.15 1142.76 412.15S1179.48 417.23 1215.86 417.23S1254.21 405.04 1288.97 405.04S1325.57 405.72 1362.07 405.72S1398.67 402.37 1435.17 402.37S1472.2 398.48 1508.28 398.48S1546.27 419.09 1581.38 419.09S1618.21 412.5 1654.48 412.5S1692.05 403.94 1727.59 403.94S1766.16 412.45 1800.69 412.45S1837.67 399.16 1873.79 399.16S1912.33 407.02 1946.9 407.02S1983.69 415.63 2020 415.63S2057.94 411.23 2093.1 411.23L2020 922 L-100 922 Z"></animate>
  <animateTransform attributeName="transform" type="translate" dur="8.910891089108912s" begin="0s" repeatCount="indefinite" values="0;10;0" calcMode="spline" keySplines="0.3 0 0.7 1;0.3 0 0.7 1"></animateTransform>
</path><path d="M-100 435.85C-61.92 446.1 -60.8 454.65 -24.73 454.65S14.25 450.42 50.53 450.42S89.81 440.55 125.8 440.55S165.69 451.07 201.07 451.07S240.84 455.09 276.33 455.09S314.38 456.05 351.6 456.05S391.26 456.41 426.86 456.41S466.56 434.72 502.13 434.72S542.14 455.24 577.4 455.24S616.18 444.88 652.66 444.88S690.98 449.71 727.93 449.71S767.35 444.61 803.2 444.61S842.26 439.18 878.46 439.18S918.16 434.54 953.73 434.54S993.25 439.34 1028.99 439.34S1067.93 440.44 1104.26 440.44S1142.05 438.81 1179.53 438.81S1218.03 443.57 1254.79 443.57S1293.44 451.19 1330.06 451.19S1368.5 452.77 1405.33 452.77S1444.03 443.12 1480.59 443.12S1519.91 437.51 1555.86 437.51S1594.74 447.85 1631.12 447.85S1670.53 435.15 1706.39 435.15S1744.6 439.1 1781.66 439.1S1821.35 441.13 1856.92 441.13S1894.8 442.3 1932.19 442.3S1970.65 443.7 2007.46 443.7S2045.83 440.21 2082.72 440.21L2020 922 L-100 922 Z" fill="#5f2868" stroke-width="0" data-darkreader-inline-fill="" style="--darkreader-inline-fill:#4c2053;">
  <animate attributeName="d" dur="7.920792079207921s" repeatCount="indefinite" values="M-100 435.85C-61.92 446.1 -60.8 454.65 -24.73 454.65S14.25 450.42 50.53 450.42S89.81 440.55 125.8 440.55S165.69 451.07 201.07 451.07S240.84 455.09 276.33 455.09S314.38 456.05 351.6 456.05S391.26 456.41 426.86 456.41S466.56 434.72 502.13 434.72S542.14 455.24 577.4 455.24S616.18 444.88 652.66 444.88S690.98 449.71 727.93 449.71S767.35 444.61 803.2 444.61S842.26 439.18 878.46 439.18S918.16 434.54 953.73 434.54S993.25 439.34 1028.99 439.34S1067.93 440.44 1104.26 440.44S1142.05 438.81 1179.53 438.81S1218.03 443.57 1254.79 443.57S1293.44 451.19 1330.06 451.19S1368.5 452.77 1405.33 452.77S1444.03 443.12 1480.59 443.12S1519.91 437.51 1555.86 437.51S1594.74 447.85 1631.12 447.85S1670.53 435.15 1706.39 435.15S1744.6 439.1 1781.66 439.1S1821.35 441.13 1856.92 441.13S1894.8 442.3 1932.19 442.3S1970.65 443.7 2007.46 443.7S2045.83 440.21 2082.72 440.21L2020 922 L-100 922 Z;M-100 444.02C-59.97 438.91 -61.81 447.28 -24.73 447.28S15.04 447.46 50.53 447.46S89.63 444.93 125.8 444.93S165.96 457.58 201.07 457.58S239.48 437.17 276.33 437.17S316.5 444.55 351.6 444.55S389.76 441.97 426.86 441.97S465.8 456.19 502.13 456.19S541.99 436.27 577.4 436.27S616.7 452.06 652.66 452.06S692.8 443.11 727.93 443.11S765.64 443.98 803.2 443.98S842.59 445.28 878.46 445.28S918.5 454.52 953.73 454.52S992.2 446.24 1028.99 446.24S1068.13 455.5 1104.26 455.5S1142.58 449.24 1179.53 449.24S1217.95 441.55 1254.79 441.55S1294.12 453.38 1330.06 453.38S1369.64 445.44 1405.33 445.44S1444.44 456.88 1480.59 456.88S1520.04 437.23 1555.86 437.23S1595 449.78 1631.12 449.78S1670.66 447.11 1706.39 447.11S1744.17 434.44 1781.66 434.44S1820.23 452.01 1856.92 452.01S1895.15 453.06 1932.19 453.06S1972.05 447.76 2007.46 447.76S2046.74 458.53 2082.72 458.53L2020 922 L-100 922 Z;M-100 435.85C-61.92 446.1 -60.8 454.65 -24.73 454.65S14.25 450.42 50.53 450.42S89.81 440.55 125.8 440.55S165.69 451.07 201.07 451.07S240.84 455.09 276.33 455.09S314.38 456.05 351.6 456.05S391.26 456.41 426.86 456.41S466.56 434.72 502.13 434.72S542.14 455.24 577.4 455.24S616.18 444.88 652.66 444.88S690.98 449.71 727.93 449.71S767.35 444.61 803.2 444.61S842.26 439.18 878.46 439.18S918.16 434.54 953.73 434.54S993.25 439.34 1028.99 439.34S1067.93 440.44 1104.26 440.44S1142.05 438.81 1179.53 438.81S1218.03 443.57 1254.79 443.57S1293.44 451.19 1330.06 451.19S1368.5 452.77 1405.33 452.77S1444.03 443.12 1480.59 443.12S1519.91 437.51 1555.86 437.51S1594.74 447.85 1631.12 447.85S1670.53 435.15 1706.39 435.15S1744.6 439.1 1781.66 439.1S1821.35 441.13 1856.92 441.13S1894.8 442.3 1932.19 442.3S1970.65 443.7 2007.46 443.7S2045.83 440.21 2082.72 440.21L2020 922 L-100 922 Z"></animate>
  <animateTransform attributeName="transform" type="translate" dur="7.920792079207921s" begin="-0.8800880088008801s" repeatCount="indefinite" values="0;10;0" calcMode="spline" keySplines="0.3 0 0.7 1;0.3 0 0.7 1"></animateTransform>
</path><path d="M-100 475.67C-61.19 487.49 -59.99 483.24 -22.44 483.24S16.4 486.88 55.12 486.88S94.76 487.98 132.68 487.98S172.14 493.18 210.24 493.18S250.23 487.8 287.8 487.8S328.68 468.89 365.37 468.89S405.78 487.88 442.93 487.88S483 483.26 520.49 483.26S560.33 495.02 598.05 495.02S638.73 493 675.61 493S715.9 486.13 753.17 486.13S793.74 492.32 830.73 492.32S870.7 497.08 908.29 497.08S949.6 470.3 985.85 470.3S1025.91 496.97 1063.41 496.97S1104.33 470.66 1140.98 470.66S1181.64 493.28 1218.54 493.28S1257.77 473.01 1296.1 473.01S1337.05 475.74 1373.66 475.74S1413.8 471.63 1451.22 471.63S1492.45 484.45 1528.78 484.45S1568.72 475.87 1606.34 475.87S1647.41 484.42 1683.9 484.42S1723.11 469.99 1761.46 469.99S1802.34 491.6 1839.02 491.6S1878.31 474.92 1916.59 474.92S1957 487.29 1994.15 487.29S2033.96 488.35 2071.71 488.35L2020 922 L-100 922 Z" fill="#5e276f" stroke-width="0" data-darkreader-inline-fill="" style="--darkreader-inline-fill:#4b1f59;">
  <animate attributeName="d" dur="6.930693069306931s" repeatCount="indefinite" values="M-100 475.67C-61.19 487.49 -59.99 483.24 -22.44 483.24S16.4 486.88 55.12 486.88S94.76 487.98 132.68 487.98S172.14 493.18 210.24 493.18S250.23 487.8 287.8 487.8S328.68 468.89 365.37 468.89S405.78 487.88 442.93 487.88S483 483.26 520.49 483.26S560.33 495.02 598.05 495.02S638.73 493 675.61 493S715.9 486.13 753.17 486.13S793.74 492.32 830.73 492.32S870.7 497.08 908.29 497.08S949.6 470.3 985.85 470.3S1025.91 496.97 1063.41 496.97S1104.33 470.66 1140.98 470.66S1181.64 493.28 1218.54 493.28S1257.77 473.01 1296.1 473.01S1337.05 475.74 1373.66 475.74S1413.8 471.63 1451.22 471.63S1492.45 484.45 1528.78 484.45S1568.72 475.87 1606.34 475.87S1647.41 484.42 1683.9 484.42S1723.11 469.99 1761.46 469.99S1802.34 491.6 1839.02 491.6S1878.31 474.92 1916.59 474.92S1957 487.29 1994.15 487.29S2033.96 488.35 2071.71 488.35L2020 922 L-100 922 Z;M-100 478.96C-59.23 489.56 -58.96 472.47 -22.44 472.47S18.34 476.97 55.12 476.97S95.85 483.14 132.68 483.14S172.59 487.7 210.24 487.7S250.41 495.32 287.8 495.32S326.96 491.32 365.37 491.32S404.83 482.9 442.93 482.9S482.77 482.52 520.49 482.52S560.27 472.77 598.05 472.77S637.94 478.52 675.61 478.52S715.31 483.51 753.17 483.51S793.85 471.8 830.73 471.8S870.26 479.29 908.29 479.29S949.11 489.7 985.85 489.7S1027.02 485.03 1063.41 485.03S1104.71 492.69 1140.98 492.69S1181.49 475.61 1218.54 475.61S1259.59 486.72 1296.1 486.72S1335.91 487.23 1373.66 487.23S1413.51 485.35 1451.22 485.35S1491.36 473.15 1528.78 473.15S1568.5 478.4 1606.34 478.4S1646.09 475.92 1683.9 475.92S1723.44 477.97 1761.46 477.97S1800.5 488.79 1839.02 488.79S1877.83 489.93 1916.59 489.93S1955.42 482.32 1994.15 482.32S2033.14 481.96 2071.71 481.96L2020 922 L-100 922 Z;M-100 475.67C-61.19 487.49 -59.99 483.24 -22.44 483.24S16.4 486.88 55.12 486.88S94.76 487.98 132.68 487.98S172.14 493.18 210.24 493.18S250.23 487.8 287.8 487.8S328.68 468.89 365.37 468.89S405.78 487.88 442.93 487.88S483 483.26 520.49 483.26S560.33 495.02 598.05 495.02S638.73 493 675.61 493S715.9 486.13 753.17 486.13S793.74 492.32 830.73 492.32S870.7 497.08 908.29 497.08S949.6 470.3 985.85 470.3S1025.91 496.97 1063.41 496.97S1104.33 470.66 1140.98 470.66S1181.64 493.28 1218.54 493.28S1257.77 473.01 1296.1 473.01S1337.05 475.74 1373.66 475.74S1413.8 471.63 1451.22 471.63S1492.45 484.45 1528.78 484.45S1568.72 475.87 1606.34 475.87S1647.41 484.42 1683.9 484.42S1723.11 469.99 1761.46 469.99S1802.34 491.6 1839.02 491.6S1878.31 474.92 1916.59 474.92S1957 487.29 1994.15 487.29S2033.96 488.35 2071.71 488.35L2020 922 L-100 922 Z"></animate>
  <animateTransform attributeName="transform" type="translate" dur="6.930693069306931s" begin="-1.54015401540154s" repeatCount="indefinite" values="0;10;0" calcMode="spline" keySplines="0.3 0 0.7 1;0.3 0 0.7 1"></animateTransform>
</path><path d="M-100 513.5C-59.29 527.84 -57.5 511.8 -20 511.8S21.2 512.27 60 512.27S100.17 524.57 140 524.57S180.81 509.6 220 509.6S261.67 511.45 300 511.45S340.31 512.34 380 512.34S420.49 535.51 460 535.51S502.44 512.27 540 512.27S580.42 518.55 620 518.55S660.52 514.54 700 514.54S741.8 531.69 780 531.69S820.15 504.98 860 504.98S902.2 511.17 940 511.17S981.55 527.29 1020 527.29S1060.98 525.55 1100 525.55S1140.79 521.9 1180 521.9S1222.54 524.56 1260 524.56S1301.6 515.63 1340 515.63S1380.46 514.31 1420 514.31S1461.7 513.36 1500 513.36S1542.11 525.1 1580 525.1S1621.15 518.83 1660 518.83S1701.48 528.91 1740 528.91S1780.5 512.45 1820 512.45S1860.47 534.38 1900 534.38S1941.1 524.36 1980 524.36S2020.18 522.51 2060 522.51L2020 922 L-100 922 Z" fill="#5c2676" stroke-width="0" data-darkreader-inline-fill="" style="--darkreader-inline-fill:#4a1e5e;">
  <animate attributeName="d" dur="5.9405940594059405s" repeatCount="indefinite" values="M-100 513.5C-59.29 527.84 -57.5 511.8 -20 511.8S21.2 512.27 60 512.27S100.17 524.57 140 524.57S180.81 509.6 220 509.6S261.67 511.45 300 511.45S340.31 512.34 380 512.34S420.49 535.51 460 535.51S502.44 512.27 540 512.27S580.42 518.55 620 518.55S660.52 514.54 700 514.54S741.8 531.69 780 531.69S820.15 504.98 860 504.98S902.2 511.17 940 511.17S981.55 527.29 1020 527.29S1060.98 525.55 1100 525.55S1140.79 521.9 1180 521.9S1222.54 524.56 1260 524.56S1301.6 515.63 1340 515.63S1380.46 514.31 1420 514.31S1461.7 513.36 1500 513.36S1542.11 525.1 1580 525.1S1621.15 518.83 1660 518.83S1701.48 528.91 1740 528.91S1780.5 512.45 1820 512.45S1860.47 534.38 1900 534.38S1941.1 524.36 1980 524.36S2020.18 522.51 2060 522.51L2020 922 L-100 922 Z;M-100 512.63C-58.07 527.16 -58.18 515.94 -20 515.94S21.25 527.15 60 527.15S102.45 521.71 140 521.71S181.69 517.46 220 517.46S261.73 535.19 300 535.19S342.07 521.08 380 521.08S420.36 517.88 460 517.88S500.62 515.73 540 515.73S581.71 512.41 620 512.41S660.66 520.58 700 520.58S742.4 525.72 780 525.72S821.65 528.4 860 528.4S901.71 529.12 940 529.12S981.56 525.91 1020 525.91S1062.37 531.05 1100 531.05S1142.4 512.46 1180 512.46S1222.53 530.58 1260 530.58S1301.5 521.8 1340 521.8S1381.11 515.17 1420 515.17S1462.17 526.27 1500 526.27S1542.49 524.05 1580 524.05S1620.93 520.34 1660 520.34S1701.9 532.84 1740 532.84S1781.9 504.84 1820 504.84S1861.24 522.53 1900 522.53S1941.12 511.77 1980 511.77S2020.11 527.27 2060 527.27L2020 922 L-100 922 Z;M-100 513.5C-59.29 527.84 -57.5 511.8 -20 511.8S21.2 512.27 60 512.27S100.17 524.57 140 524.57S180.81 509.6 220 509.6S261.67 511.45 300 511.45S340.31 512.34 380 512.34S420.49 535.51 460 535.51S502.44 512.27 540 512.27S580.42 518.55 620 518.55S660.52 514.54 700 514.54S741.8 531.69 780 531.69S820.15 504.98 860 504.98S902.2 511.17 940 511.17S981.55 527.29 1020 527.29S1060.98 525.55 1100 525.55S1140.79 521.9 1180 521.9S1222.54 524.56 1260 524.56S1301.6 515.63 1340 515.63S1380.46 514.31 1420 514.31S1461.7 513.36 1500 513.36S1542.11 525.1 1580 525.1S1621.15 518.83 1660 518.83S1701.48 528.91 1740 528.91S1780.5 512.45 1820 512.45S1860.47 534.38 1900 534.38S1941.1 524.36 1980 524.36S2020.18 522.51 2060 522.51L2020 922 L-100 922 Z"></animate>
  <animateTransform attributeName="transform" type="translate" dur="5.9405940594059405s" begin="-1.9801980198019804s" repeatCount="indefinite" values="0;10;0" calcMode="spline" keySplines="0.3 0 0.7 1;0.3 0 0.7 1"></animateTransform>
</path><path d="M-100 559.33C-58.49 563.6 -58.26 561.82 -17.4 561.82S24.02 550.72 65.19 550.72S107.33 551.38 147.79 551.38S190.54 553.6 230.39 553.6S272.84 568.96 312.99 568.96S355.84 555.22 395.58 555.22S439.31 551.15 478.18 551.15S521.28 540.97 560.78 540.97S604.46 564.87 643.38 564.87S687.06 558 725.97 558S768.94 571.62 808.57 571.62S850.74 562.36 891.17 562.36S934.4 557.57 973.77 557.57S1017.38 540.77 1056.36 540.77S1099.03 558.2 1138.96 558.2S1181.83 564.34 1221.56 564.34S1263.6 541.08 1304.16 541.08S1346.72 556.64 1386.75 556.64S1430.25 572.09 1469.35 572.09S1511.59 557.87 1551.95 557.87S1594.47 552.31 1634.55 552.31S1678.3 562.14 1717.14 562.14S1760.49 540.64 1799.74 540.64S1843.25 565.42 1882.34 565.42S1924.25 559.81 1964.94 559.81S2007.53 547.91 2047.53 547.91L2020 922 L-100 922 Z" fill="#59267e" stroke-width="0" data-darkreader-inline-fill="" style="--darkreader-inline-fill:#471e65;">
  <animate attributeName="d" dur="4.9504950495049505s" repeatCount="indefinite" values="M-100 559.33C-58.49 563.6 -58.26 561.82 -17.4 561.82S24.02 550.72 65.19 550.72S107.33 551.38 147.79 551.38S190.54 553.6 230.39 553.6S272.84 568.96 312.99 568.96S355.84 555.22 395.58 555.22S439.31 551.15 478.18 551.15S521.28 540.97 560.78 540.97S604.46 564.87 643.38 564.87S687.06 558 725.97 558S768.94 571.62 808.57 571.62S850.74 562.36 891.17 562.36S934.4 557.57 973.77 557.57S1017.38 540.77 1056.36 540.77S1099.03 558.2 1138.96 558.2S1181.83 564.34 1221.56 564.34S1263.6 541.08 1304.16 541.08S1346.72 556.64 1386.75 556.64S1430.25 572.09 1469.35 572.09S1511.59 557.87 1551.95 557.87S1594.47 552.31 1634.55 552.31S1678.3 562.14 1717.14 562.14S1760.49 540.64 1799.74 540.64S1843.25 565.42 1882.34 565.42S1924.25 559.81 1964.94 559.81S2007.53 547.91 2047.53 547.91L2020 922 L-100 922 Z;M-100 544.65C-56.89 552.26 -57.29 564.18 -17.4 564.18S24.08 557.74 65.19 557.74S108.7 546.57 147.79 546.57S190.44 544 230.39 544S272.42 560.79 312.99 560.79S354.4 552.78 395.58 552.78S437.83 554.94 478.18 554.94S521.34 552.49 560.78 552.49S602.12 569.38 643.38 569.38S686.97 560.94 725.97 560.94S769.47 562.65 808.57 562.65S852.31 556.47 891.17 556.47S933.6 573.21 973.77 573.21S1016.94 546.94 1056.36 546.94S1099.17 553.44 1138.96 553.44S1182.06 556.51 1221.56 556.51S1263.74 551.78 1304.16 551.78S1346.28 547.64 1386.75 547.64S1428.77 544.83 1469.35 544.83S1512.72 562.17 1551.95 562.17S1595.03 556.6 1634.55 556.6S1677.01 562.3 1717.14 562.3S1760.47 558.03 1799.74 558.03S1842.32 540.08 1882.34 540.08S1923.71 552.19 1964.94 552.19S2006.62 560.24 2047.53 560.24L2020 922 L-100 922 Z;M-100 559.33C-58.49 563.6 -58.26 561.82 -17.4 561.82S24.02 550.72 65.19 550.72S107.33 551.38 147.79 551.38S190.54 553.6 230.39 553.6S272.84 568.96 312.99 568.96S355.84 555.22 395.58 555.22S439.31 551.15 478.18 551.15S521.28 540.97 560.78 540.97S604.46 564.87 643.38 564.87S687.06 558 725.97 558S768.94 571.62 808.57 571.62S850.74 562.36 891.17 562.36S934.4 557.57 973.77 557.57S1017.38 540.77 1056.36 540.77S1099.03 558.2 1138.96 558.2S1181.83 564.34 1221.56 564.34S1263.6 541.08 1304.16 541.08S1346.72 556.64 1386.75 556.64S1430.25 572.09 1469.35 572.09S1511.59 557.87 1551.95 557.87S1594.47 552.31 1634.55 552.31S1678.3 562.14 1717.14 562.14S1760.49 540.64 1799.74 540.64S1843.25 565.42 1882.34 565.42S1924.25 559.81 1964.94 559.81S2007.53 547.91 2047.53 547.91L2020 922 L-100 922 Z"></animate>
  <animateTransform attributeName="transform" type="translate" dur="4.9504950495049505s" begin="-2.2002200220022003s" repeatCount="indefinite" values="0;10;0" calcMode="spline" keySplines="0.3 0 0.7 1;0.3 0 0.7 1"></animateTransform>
</path><path d="M-100 576.74C-55.2 584.95 -56.44 600.08 -14.63 600.08S30.32 582.28 70.74 582.28S113.61 599.86 156.11 599.86S200.11 579.7 241.48 579.7S285.52 586.26 326.85 586.26S370.04 579.42 412.21 579.42S454.99 591.31 497.58 591.31S542.48 611.14 582.95 611.14S627.43 606.19 668.32 606.19S711.43 598.34 753.69 598.34S798.09 607.03 839.06 607.03S884 597.11 924.43 597.11S969.56 590.43 1009.8 590.43S1052.59 580.26 1095.17 580.26S1140.18 590.85 1180.54 590.85S1223.62 599.74 1265.91 599.74S1310.74 602.24 1351.28 602.24S1394.97 578.02 1436.64 578.02S1480.48 600.05 1522.01 600.05S1567.26 594.61 1607.38 594.61S1652.58 594.96 1692.75 594.96S1736.25 591.11 1778.12 591.11S1822.74 600.21 1863.49 600.21S1908.39 582.15 1948.86 582.15S1992.87 594.65 2034.23 594.65L2020 922 L-100 922 Z" fill="#542686" stroke-width="0" data-darkreader-inline-fill="" style="--darkreader-inline-fill:#431e6b;">
  <animate attributeName="d" dur="3.9603960396039604s" repeatCount="indefinite" values="M-100 576.74C-55.2 584.95 -56.44 600.08 -14.63 600.08S30.32 582.28 70.74 582.28S113.61 599.86 156.11 599.86S200.11 579.7 241.48 579.7S285.52 586.26 326.85 586.26S370.04 579.42 412.21 579.42S454.99 591.31 497.58 591.31S542.48 611.14 582.95 611.14S627.43 606.19 668.32 606.19S711.43 598.34 753.69 598.34S798.09 607.03 839.06 607.03S884 597.11 924.43 597.11S969.56 590.43 1009.8 590.43S1052.59 580.26 1095.17 580.26S1140.18 590.85 1180.54 590.85S1223.62 599.74 1265.91 599.74S1310.74 602.24 1351.28 602.24S1394.97 578.02 1436.64 578.02S1480.48 600.05 1522.01 600.05S1567.26 594.61 1607.38 594.61S1652.58 594.96 1692.75 594.96S1736.25 591.11 1778.12 591.11S1822.74 600.21 1863.49 600.21S1908.39 582.15 1948.86 582.15S1992.87 594.65 2034.23 594.65L2020 922 L-100 922 Z;M-100 598.73C-56.35 594.73 -55.43 608.51 -14.63 608.51S28.4 585.55 70.74 585.55S113.66 586.73 156.11 586.73S200.05 590.64 241.48 590.64S285.99 608.88 326.85 608.88S371.19 579.56 412.21 579.56S456.8 587.19 497.58 587.19S540.91 600.25 582.95 600.25S627.94 583.74 668.32 583.74S713.31 582.18 753.69 582.18S797.34 599.93 839.06 599.93S881.88 578.92 924.43 578.92S969.19 586.89 1009.8 586.89S1053.52 578.75 1095.17 578.75S1138.18 590.76 1180.54 590.76S1223.87 587.2 1265.91 587.2S1310.28 610.59 1351.28 610.59S1395.4 580.94 1436.64 580.94S1480.31 589.35 1522.01 589.35S1565.76 586.08 1607.38 586.08S1652.18 587.83 1692.75 587.83S1737.71 577.07 1778.12 577.07S1822.52 588.53 1863.49 588.53S1908.57 588.63 1948.86 588.63S1993.37 603.2 2034.23 603.2L2020 922 L-100 922 Z;M-100 576.74C-55.2 584.95 -56.44 600.08 -14.63 600.08S30.32 582.28 70.74 582.28S113.61 599.86 156.11 599.86S200.11 579.7 241.48 579.7S285.52 586.26 326.85 586.26S370.04 579.42 412.21 579.42S454.99 591.31 497.58 591.31S542.48 611.14 582.95 611.14S627.43 606.19 668.32 606.19S711.43 598.34 753.69 598.34S798.09 607.03 839.06 607.03S884 597.11 924.43 597.11S969.56 590.43 1009.8 590.43S1052.59 580.26 1095.17 580.26S1140.18 590.85 1180.54 590.85S1223.62 599.74 1265.91 599.74S1310.74 602.24 1351.28 602.24S1394.97 578.02 1436.64 578.02S1480.48 600.05 1522.01 600.05S1567.26 594.61 1607.38 594.61S1652.58 594.96 1692.75 594.96S1736.25 591.11 1778.12 591.11S1822.74 600.21 1863.49 600.21S1908.39 582.15 1948.86 582.15S1992.87 594.65 2034.23 594.65L2020 922 L-100 922 Z"></animate>
  <animateTransform attributeName="transform" type="translate" dur="3.9603960396039604s" begin="-2.2002200220022003s" repeatCount="indefinite" values="0;10;0" calcMode="spline" keySplines="0.3 0 0.7 1;0.3 0 0.7 1"></animateTransform>
</path><path d="M-100 616.66C-54.87 623.39 -54.21 628.52 -11.67 628.52S32.63 626.22 76.67 626.22S121.41 629.64 165 629.64S211.16 636.37 253.33 636.37S298.35 632.63 341.67 632.63S387.91 633 430 633S476.5 647.87 518.33 647.87S563.43 625.29 606.67 625.29S652.24 627.52 695 627.52S741.27 616.77 783.33 616.77S827.59 625.55 871.67 625.55S916.61 617.38 960 617.38S1005.7 649.16 1048.33 649.16S1093.37 628.03 1136.67 628.03S1181.66 636.28 1225 636.28S1271.53 633.46 1313.33 633.46S1359.35 620.19 1401.67 620.19S1446.21 622.28 1490 622.28S1534.57 627.74 1578.33 627.74S1624.26 622.05 1666.67 622.05S1711.36 627.99 1755 627.99S1800.9 636.71 1843.33 636.71S1887.58 643.95 1931.67 643.95S1977.54 633.99 2020 633.99S2066.39 638.89 2108.33 638.89L2020 922 L-100 922 Z" fill="#4e278e" stroke-width="0" data-darkreader-inline-fill="" style="--darkreader-inline-fill:#3e1f72;">
  <animate attributeName="d" dur="2.9702970297029703s" repeatCount="indefinite" values="M-100 616.66C-54.87 623.39 -54.21 628.52 -11.67 628.52S32.63 626.22 76.67 626.22S121.41 629.64 165 629.64S211.16 636.37 253.33 636.37S298.35 632.63 341.67 632.63S387.91 633 430 633S476.5 647.87 518.33 647.87S563.43 625.29 606.67 625.29S652.24 627.52 695 627.52S741.27 616.77 783.33 616.77S827.59 625.55 871.67 625.55S916.61 617.38 960 617.38S1005.7 649.16 1048.33 649.16S1093.37 628.03 1136.67 628.03S1181.66 636.28 1225 636.28S1271.53 633.46 1313.33 633.46S1359.35 620.19 1401.67 620.19S1446.21 622.28 1490 622.28S1534.57 627.74 1578.33 627.74S1624.26 622.05 1666.67 622.05S1711.36 627.99 1755 627.99S1800.9 636.71 1843.33 636.71S1887.58 643.95 1931.67 643.95S1977.54 633.99 2020 633.99S2066.39 638.89 2108.33 638.89L2020 922 L-100 922 Z;M-100 636.34C-54.55 614.8 -55.27 642.58 -11.67 642.58S34.57 646.21 76.67 646.21S121.53 628.25 165 628.25S211.23 626.53 253.33 626.53S298.01 635.49 341.67 635.49S386.16 614.62 430 614.62S476.46 624.86 518.33 624.86S563.26 619.81 606.67 619.81S653.26 646.36 695 646.36S740 614.65 783.33 614.65S828.02 638.63 871.67 638.63S916.71 613.72 960 613.72S1004.2 640.61 1048.33 640.61S1094.01 636.6 1136.67 636.6S1182.77 627.51 1225 627.51S1271.02 632.31 1313.33 632.31S1358.09 632.88 1401.67 632.88S1446.3 625.1 1490 625.1S1535.31 640.57 1578.33 640.57S1623.03 612.19 1666.67 612.19S1712.36 630.44 1755 630.44S1801.16 620.57 1843.33 620.57S1889.78 636.75 1931.67 636.75S1976.79 632.96 2020 632.96S2066 634.45 2108.33 634.45L2020 922 L-100 922 Z;M-100 616.66C-54.87 623.39 -54.21 628.52 -11.67 628.52S32.63 626.22 76.67 626.22S121.41 629.64 165 629.64S211.16 636.37 253.33 636.37S298.35 632.63 341.67 632.63S387.91 633 430 633S476.5 647.87 518.33 647.87S563.43 625.29 606.67 625.29S652.24 627.52 695 627.52S741.27 616.77 783.33 616.77S827.59 625.55 871.67 625.55S916.61 617.38 960 617.38S1005.7 649.16 1048.33 649.16S1093.37 628.03 1136.67 628.03S1181.66 636.28 1225 636.28S1271.53 633.46 1313.33 633.46S1359.35 620.19 1401.67 620.19S1446.21 622.28 1490 622.28S1534.57 627.74 1578.33 627.74S1624.26 622.05 1666.67 622.05S1711.36 627.99 1755 627.99S1800.9 636.71 1843.33 636.71S1887.58 643.95 1931.67 643.95S1977.54 633.99 2020 633.99S2066.39 638.89 2108.33 638.89L2020 922 L-100 922 Z"></animate>
  <animateTransform attributeName="transform" type="translate" dur="2.9702970297029703s" begin="-1.9801980198019804s" repeatCount="indefinite" values="0;10;0" calcMode="spline" keySplines="0.3 0 0.7 1;0.3 0 0.7 1"></animateTransform>
</path><path d="M-100 651.35C-53.65 662.97 -52.51 664.37 -8.49 664.37S37.43 662.13 83.02 662.13S131.24 675.47 174.53 675.47S221.5 663.25 266.04 663.25S312.71 685.66 357.55 685.66S405.66 684.26 449.06 684.26S496.31 671.52 540.58 671.52S588.89 647.62 632.09 647.62S679.1 666.8 723.6 666.8S771.12 677.85 815.11 677.85S861.99 664.44 906.62 664.44S953.39 683.84 998.13 683.84S1044.83 666.54 1089.64 666.54S1137.12 675.14 1181.15 675.14S1228.21 663.13 1272.66 663.13S1320.19 662.22 1364.17 662.22S1410.95 686.93 1455.68 686.93S1502.42 662.82 1547.19 662.82S1593.81 677.63 1638.71 677.63S1686.55 662.65 1730.22 662.65S1777.17 687.18 1821.73 687.18S1869.95 648.1 1913.24 648.1S1960.27 668.71 2004.75 668.71S2052.84 670.21 2096.26 670.21L2020 922 L-100 922 Z" fill="#452897" stroke-width="0" data-darkreader-inline-fill="" style="--darkreader-inline-fill:#372079;">
  <animate attributeName="d" dur="1.9801980198019802s" repeatCount="indefinite" values="M-100 651.35C-53.65 662.97 -52.51 664.37 -8.49 664.37S37.43 662.13 83.02 662.13S131.24 675.47 174.53 675.47S221.5 663.25 266.04 663.25S312.71 685.66 357.55 685.66S405.66 684.26 449.06 684.26S496.31 671.52 540.58 671.52S588.89 647.62 632.09 647.62S679.1 666.8 723.6 666.8S771.12 677.85 815.11 677.85S861.99 664.44 906.62 664.44S953.39 683.84 998.13 683.84S1044.83 666.54 1089.64 666.54S1137.12 675.14 1181.15 675.14S1228.21 663.13 1272.66 663.13S1320.19 662.22 1364.17 662.22S1410.95 686.93 1455.68 686.93S1502.42 662.82 1547.19 662.82S1593.81 677.63 1638.71 677.63S1686.55 662.65 1730.22 662.65S1777.17 687.18 1821.73 687.18S1869.95 648.1 1913.24 648.1S1960.27 668.71 2004.75 668.71S2052.84 670.21 2096.26 670.21L2020 922 L-100 922 Z;M-100 668.27C-52.03 673.05 -53.53 667.86 -8.49 667.86S39.34 662.28 83.02 662.28S131.04 665.6 174.53 665.6S222.15 654.51 266.04 654.51S313.35 678.68 357.55 678.68S405.53 652.23 449.06 652.23S495.84 678.31 540.58 678.31S586.85 650.23 632.09 650.23S678.59 662.63 723.6 662.63S770.27 659.34 815.11 659.34S861.05 663.32 906.62 663.32S952.81 662.47 998.13 662.47S1044.16 671.12 1089.64 671.12S1136.47 650.9 1181.15 650.9S1227.97 664.54 1272.66 664.54S1320.68 673.98 1364.17 673.98S1410.02 676.69 1455.68 676.69S1501.49 664.69 1547.19 664.69S1593.97 670.14 1638.71 670.14S1684.58 652.74 1730.22 652.74S1777.34 673.39 1821.73 673.39S1869.3 650.43 1913.24 650.43S1959.59 680.94 2004.75 680.94S2052.19 680.96 2096.26 680.96L2020 922 L-100 922 Z;M-100 651.35C-53.65 662.97 -52.51 664.37 -8.49 664.37S37.43 662.13 83.02 662.13S131.24 675.47 174.53 675.47S221.5 663.25 266.04 663.25S312.71 685.66 357.55 685.66S405.66 684.26 449.06 684.26S496.31 671.52 540.58 671.52S588.89 647.62 632.09 647.62S679.1 666.8 723.6 666.8S771.12 677.85 815.11 677.85S861.99 664.44 906.62 664.44S953.39 683.84 998.13 683.84S1044.83 666.54 1089.64 666.54S1137.12 675.14 1181.15 675.14S1228.21 663.13 1272.66 663.13S1320.19 662.22 1364.17 662.22S1410.95 686.93 1455.68 686.93S1502.42 662.82 1547.19 662.82S1593.81 677.63 1638.71 677.63S1686.55 662.65 1730.22 662.65S1777.17 687.18 1821.73 687.18S1869.95 648.1 1913.24 648.1S1960.27 668.71 2004.75 668.71S2052.84 670.21 2096.26 670.21L2020 922 L-100 922 Z"></animate>
  <animateTransform attributeName="transform" type="translate" dur="1.9801980198019802s" begin="-1.54015401540154s" repeatCount="indefinite" values="0;10;0" calcMode="spline" keySplines="0.3 0 0.7 1;0.3 0 0.7 1"></animateTransform>
</path><path d="M-100 691.68C-51.72 688.78 -50.34 716.47 -5.07 716.47S43.76 700.02 89.85 700.02S138.99 717.14 184.78 717.14S232.79 702.82 279.7 702.82S329.48 710.22 374.63 710.22S422.67 708.84 469.55 708.84S519.01 704.03 564.48 704.03S612.4 710.18 659.4 710.18S708.5 713.92 754.33 713.92S804.31 701.77 849.25 701.77S897.5 713.48 944.18 713.48S992.74 707.45 1039.1 707.45S1086.69 719.96 1134.03 719.96S1183.3 699.05 1228.96 699.05S1278.65 717.37 1323.88 717.37S1371.7 699.68 1418.81 699.68S1466.55 714.32 1513.73 714.32S1562.6 689.5 1608.66 689.5S1658.55 706.57 1703.58 706.57S1751.44 695.69 1798.51 695.69S1847.82 720.49 1893.43 720.49S1942.22 683.68 1988.36 683.68S2038.13 701.37 2083.28 701.37L2020 922 L-100 922 Z" fill="#392a9f" stroke-width="0" data-darkreader-inline-fill="" style="--darkreader-inline-fill:#2e227f;">
  <animate attributeName="d" dur="0.9900990099009901s" repeatCount="indefinite" values="M-100 691.68C-51.72 688.78 -50.34 716.47 -5.07 716.47S43.76 700.02 89.85 700.02S138.99 717.14 184.78 717.14S232.79 702.82 279.7 702.82S329.48 710.22 374.63 710.22S422.67 708.84 469.55 708.84S519.01 704.03 564.48 704.03S612.4 710.18 659.4 710.18S708.5 713.92 754.33 713.92S804.31 701.77 849.25 701.77S897.5 713.48 944.18 713.48S992.74 707.45 1039.1 707.45S1086.69 719.96 1134.03 719.96S1183.3 699.05 1228.96 699.05S1278.65 717.37 1323.88 717.37S1371.7 699.68 1418.81 699.68S1466.55 714.32 1513.73 714.32S1562.6 689.5 1608.66 689.5S1658.55 706.57 1703.58 706.57S1751.44 695.69 1798.51 695.69S1847.82 720.49 1893.43 720.49S1942.22 683.68 1988.36 683.68S2038.13 701.37 2083.28 701.37L2020 922 L-100 922 Z;M-100 684.24C-50.49 693.15 -50.31 713.89 -5.07 713.89S44.64 708.51 89.85 708.51S139.57 700.68 184.78 700.68S233.36 698.73 279.7 698.73S327.93 706.24 374.63 706.24S423.26 695.8 469.55 695.8S517.06 706.33 564.48 706.33S613.09 687.09 659.4 687.09S709.06 720.38 754.33 720.38S802.94 694.78 849.25 694.78S898 708.42 944.18 708.42S994.17 695.74 1039.1 695.74S1087.28 702.39 1134.03 702.39S1181.79 684.51 1228.96 684.51S1278.69 718.69 1323.88 718.69S1372.2 690.78 1418.81 690.78S1468.03 717.88 1513.73 717.88S1561.63 686.89 1608.66 686.89S1657.73 715.76 1703.58 715.76S1751.76 695.61 1798.51 695.61S1848.15 721.12 1893.43 721.12S1943.43 691.43 1988.36 691.43S2038.27 707.56 2083.28 707.56L2020 922 L-100 922 Z;M-100 691.68C-51.72 688.78 -50.34 716.47 -5.07 716.47S43.76 700.02 89.85 700.02S138.99 717.14 184.78 717.14S232.79 702.82 279.7 702.82S329.48 710.22 374.63 710.22S422.67 708.84 469.55 708.84S519.01 704.03 564.48 704.03S612.4 710.18 659.4 710.18S708.5 713.92 754.33 713.92S804.31 701.77 849.25 701.77S897.5 713.48 944.18 713.48S992.74 707.45 1039.1 707.45S1086.69 719.96 1134.03 719.96S1183.3 699.05 1228.96 699.05S1278.65 717.37 1323.88 717.37S1371.7 699.68 1418.81 699.68S1466.55 714.32 1513.73 714.32S1562.6 689.5 1608.66 689.5S1658.55 706.57 1703.58 706.57S1751.44 695.69 1798.51 695.69S1847.82 720.49 1893.43 720.49S1942.22 683.68 1988.36 683.68S2038.13 701.37 2083.28 701.37L2020 922 L-100 922 Z"></animate>
  <animateTransform attributeName="transform" type="translate" dur="0.9900990099009901s" begin="-0.8800880088008801s" repeatCount="indefinite" values="0;10;0" calcMode="spline" keySplines="0.3 0 0.7 1;0.3 0 0.7 1"></animateTransform>
</path></g>
</svg>