<?xml version="1.0" encoding="utf-8"?>
<svg xmlns="http://www.w3.org/2000/svg" xmlns:xlink="http://www.w3.org/1999/xlink" style="margin: auto; background: rgb(241, 242, 243); display: block; z-index: 1; position: relative; --darkreader-inline-bgimage: initial; --darkreader-inline-bgcolor:#1f2223; shape-rendering: auto;" width="1920" height="922" preserveAspectRatio="xMidYMid" viewBox="0 0 1920 922" data-darkreader-inline-bgimage="" data-darkreader-inline-bgcolor="">
<g transform="translate(960,461) scale(1,1) translate(-960,-461)"><path d="M-100 410.88C-61.86 401.74 -61.97 399.04 -26.9 399.04S11.24 404.01 46.21 404.01S83.89 419.7 119.31 419.7S155.91 418.83 192.41 418.83S231.3 415.24 265.52 415.24S303.69 412.28 338.62 412.28S375.38 404.11 411.72 404.11S449.47 408.98 484.83 408.98S523.6 403.73 557.93 403.73S594.74 403.59 631.03 403.59S669.57 401.4 704.14 401.4S743.04 399.94 777.24 399.94S814.92 415.55 850.34 415.55S888.91 417.44 923.45 417.44S961.81 414.86 996.55 414.86S1033.42 417.51 1069.66 417.51S1106.47 416.51 1142.76 416.51S1180.24 412.22 1215.86 412.22S1254.46 413.88 1288.97 413.88S1326.03 398.53 1362.07 398.53S1400.07 410.34 1435.17 410.34S1471.96 403.9 1508.28 403.9S1547.12 406.86 1581.38 406.86S1620.09 415.06 1654.48 415.06S1691.07 411.46 1727.59 411.46S1764.55 404.93 1800.69 404.93S1839.63 397.02 1873.79 397.02S1910.51 402.08 1946.9 402.08S1984.34 414.74 2020 414.74S2057.76 410.34 2093.1 410.34L2020 922 L-100 922 Z" fill="#5f2a62" stroke-width="0" data-darkreader-inline-fill="" style="--darkreader-inline-fill:#4c224e;">
  <animate attributeName="d" dur="8.910891089108912s" repeatCount="indefinite" values="M-100 410.88C-61.86 401.74 -61.97 399.04 -26.9 399.04S11.24 404.01 46.21 404.01S83.89 419.7 119.31 419.7S155.91 418.83 192.41 418.83S231.3 415.24 265.52 415.24S303.69 412.28 338.62 412.28S375.38 404.11 411.72 404.11S449.47 408.98 484.83 408.98S523.6 403.73 557.93 403.73S594.74 403.59 631.03 403.59S669.57 401.4 704.14 401.4S743.04 399.94 777.24 399.94S814.92 415.55 850.34 415.55S888.91 417.44 923.45 417.44S961.81 414.86 996.55 414.86S1033.42 417.51 1069.66 417.51S1106.47 416.51 1142.76 416.51S1180.24 412.22 1215.86 412.22S1254.46 413.88 1288.97 413.88S1326.03 398.53 1362.07 398.53S1400.07 410.34 1435.17 410.34S1471.96 403.9 1508.28 403.9S1547.12 406.86 1581.38 406.86S1620.09 415.06 1654.48 415.06S1691.07 411.46 1727.59 411.46S1764.55 404.93 1800.69 404.93S1839.63 397.02 1873.79 397.02S1910.51 402.08 1946.9 402.08S1984.34 414.74 2020 414.74S2057.76 410.34 2093.1 410.34L2020 922 L-100 922 Z;M-100 406.69C-61.07 420.49 -61.42 409.05 -26.9 409.05S10.14 411.96 46.21 411.96S84.29 407.73 119.31 407.73S158.32 411 192.41 411S229.98 417.09 265.52 417.09S304.24 408.64 338.62 408.64S375.62 398.47 411.72 398.47S448.8 418.39 484.83 418.39S522.52 407.37 557.93 407.37S595.61 406.64 631.03 406.64S670.05 405.19 704.14 405.19S742.74 419.88 777.24 419.88S813.85 403.51 850.34 403.51S888.08 421.83 923.45 421.83S961.66 402.17 996.55 402.17S1034.29 411.93 1069.66 411.93S1106.68 416.29 1142.76 416.29S1180.41 411.92 1215.86 411.92S1252.75 419.2 1288.97 419.2S1325.95 416.57 1362.07 416.57S1400.27 416.89 1435.17 416.89S1472.71 415.12 1508.28 415.12S1546.27 421.38 1581.38 421.38S1618.46 404.59 1654.48 404.59S1693.15 412.51 1727.59 412.51S1764.68 402.01 1800.69 402.01S1837.94 417.06 1873.79 417.06S1912.83 408.13 1946.9 408.13S1985.17 415.41 2020 415.41S2057.52 412.91 2093.1 412.91L2020 922 L-100 922 Z;M-100 410.88C-61.86 401.74 -61.97 399.04 -26.9 399.04S11.24 404.01 46.21 404.01S83.89 419.7 119.31 419.7S155.91 418.83 192.41 418.83S231.3 415.24 265.52 415.24S303.69 412.28 338.62 412.28S375.38 404.11 411.72 404.11S449.47 408.98 484.83 408.98S523.6 403.73 557.93 403.73S594.74 403.59 631.03 403.59S669.57 401.4 704.14 401.4S743.04 399.94 777.24 399.94S814.92 415.55 850.34 415.55S888.91 417.44 923.45 417.44S961.81 414.86 996.55 414.86S1033.42 417.51 1069.66 417.51S1106.47 416.51 1142.76 416.51S1180.24 412.22 1215.86 412.22S1254.46 413.88 1288.97 413.88S1326.03 398.53 1362.07 398.53S1400.07 410.34 1435.17 410.34S1471.96 403.9 1508.28 403.9S1547.12 406.86 1581.38 406.86S1620.09 415.06 1654.48 415.06S1691.07 411.46 1727.59 411.46S1764.55 404.93 1800.69 404.93S1839.63 397.02 1873.79 397.02S1910.51 402.08 1946.9 402.08S1984.34 414.74 2020 414.74S2057.76 410.34 2093.1 410.34L2020 922 L-100 922 Z"></animate>
  <animateTransform attributeName="transform" type="translate" dur="8.910891089108912s" begin="0s" repeatCount="indefinite" values="0;10;0" calcMode="spline" keySplines="0.3 0 0.7 1;0.3 0 0.7 1"></animateTransform>
</path><path d="M-100 437.64C-60.65 454.53 -61.82 449.18 -24.73 449.18S15.43 443.19 50.53 443.19S89.12 439.43 125.8 439.43S165.46 460.51 201.07 460.51S238.95 453.27 276.33 453.27S314.47 454.55 351.6 454.55S390.34 452.86 426.86 452.86S464.57 450.25 502.13 450.25S541.52 454.3 577.4 454.3S616.91 438.2 652.66 438.2S691.71 458.96 727.93 458.96S767.43 460.26 803.2 460.26S842.28 440.98 878.46 440.98S917.59 456.3 953.73 456.3S992.81 449.37 1028.99 449.37S1067.88 447.39 1104.26 447.39S1143.83 441.75 1179.53 441.75S1217.17 449.4 1254.79 449.4S1294.49 456.68 1330.06 456.68S1368.14 433.26 1405.33 433.26S1443.84 438.97 1480.59 438.97S1520.68 438.38 1555.86 438.38S1595.54 438.38 1631.12 438.38S1670.47 440.39 1706.39 440.39S1745.97 447.99 1781.66 447.99S1820.54 463.61 1856.92 463.61S1896.59 461.37 1932.19 461.37S1971.06 432.37 2007.46 432.37S2046.17 448.09 2082.72 448.09L2020 922 L-100 922 Z" fill="#5f2868" stroke-width="0" data-darkreader-inline-fill="" style="--darkreader-inline-fill:#4c2053;">
  <animate attributeName="d" dur="7.920792079207921s" repeatCount="indefinite" values="M-100 437.64C-60.65 454.53 -61.82 449.18 -24.73 449.18S15.43 443.19 50.53 443.19S89.12 439.43 125.8 439.43S165.46 460.51 201.07 460.51S238.95 453.27 276.33 453.27S314.47 454.55 351.6 454.55S390.34 452.86 426.86 452.86S464.57 450.25 502.13 450.25S541.52 454.3 577.4 454.3S616.91 438.2 652.66 438.2S691.71 458.96 727.93 458.96S767.43 460.26 803.2 460.26S842.28 440.98 878.46 440.98S917.59 456.3 953.73 456.3S992.81 449.37 1028.99 449.37S1067.88 447.39 1104.26 447.39S1143.83 441.75 1179.53 441.75S1217.17 449.4 1254.79 449.4S1294.49 456.68 1330.06 456.68S1368.14 433.26 1405.33 433.26S1443.84 438.97 1480.59 438.97S1520.68 438.38 1555.86 438.38S1595.54 438.38 1631.12 438.38S1670.47 440.39 1706.39 440.39S1745.97 447.99 1781.66 447.99S1820.54 463.61 1856.92 463.61S1896.59 461.37 1932.19 461.37S1971.06 432.37 2007.46 432.37S2046.17 448.09 2082.72 448.09L2020 922 L-100 922 Z;M-100 452.75C-61.25 435.52 -60.91 441.55 -24.73 441.55S14.4 448.87 50.53 448.87S89.52 440.92 125.8 440.92S164.79 443.21 201.07 443.21S238.78 439.99 276.33 439.99S314.74 438.25 351.6 438.25S391.76 441.16 426.86 441.16S466.13 439.73 502.13 439.73S540.06 433.66 577.4 433.66S615.92 446.33 652.66 446.33S692.04 455.97 727.93 455.97S767.12 446.47 803.2 446.47S841.37 446.7 878.46 446.7S916.91 457.36 953.73 457.36S993.07 453.3 1028.99 453.3S1068.76 450.74 1104.26 450.74S1143.35 445.79 1179.53 445.79S1218.61 444.21 1254.79 444.21S1292.97 448 1330.06 448S1370.12 446.92 1405.33 446.92S1445.2 452.24 1480.59 452.24S1520.11 455.07 1555.86 455.07S1594.51 443.16 1631.12 443.16S1669.86 442.23 1706.39 442.23S1744.69 446.63 1781.66 446.63S1819.96 447.57 1856.92 447.57S1895.38 445.5 1932.19 445.5S1970.55 452.15 2007.46 452.15S2046.25 443.51 2082.72 443.51L2020 922 L-100 922 Z;M-100 437.64C-60.65 454.53 -61.82 449.18 -24.73 449.18S15.43 443.19 50.53 443.19S89.12 439.43 125.8 439.43S165.46 460.51 201.07 460.51S238.95 453.27 276.33 453.27S314.47 454.55 351.6 454.55S390.34 452.86 426.86 452.86S464.57 450.25 502.13 450.25S541.52 454.3 577.4 454.3S616.91 438.2 652.66 438.2S691.71 458.96 727.93 458.96S767.43 460.26 803.2 460.26S842.28 440.98 878.46 440.98S917.59 456.3 953.73 456.3S992.81 449.37 1028.99 449.37S1067.88 447.39 1104.26 447.39S1143.83 441.75 1179.53 441.75S1217.17 449.4 1254.79 449.4S1294.49 456.68 1330.06 456.68S1368.14 433.26 1405.33 433.26S1443.84 438.97 1480.59 438.97S1520.68 438.38 1555.86 438.38S1595.54 438.38 1631.12 438.38S1670.47 440.39 1706.39 440.39S1745.97 447.99 1781.66 447.99S1820.54 463.61 1856.92 463.61S1896.59 461.37 1932.19 461.37S1971.06 432.37 2007.46 432.37S2046.17 448.09 2082.72 448.09L2020 922 L-100 922 Z"></animate>
  <animateTransform attributeName="transform" type="translate" dur="7.920792079207921s" begin="-0.8800880088008801s" repeatCount="indefinite" values="0;10;0" calcMode="spline" keySplines="0.3 0 0.7 1;0.3 0 0.7 1"></animateTransform>
</path><path d="M-100 469.19C-60.05 474.39 -59.12 497.33 -22.44 497.33S17.2 492.91 55.12 492.91S94.43 474.81 132.68 474.81S173.41 486.9 210.24 486.9S250.87 486.75 287.8 486.75S328.7 469.98 365.37 469.98S405.39 488.87 442.93 488.87S482.96 483.84 520.49 483.84S560.01 481.83 598.05 481.83S638 475.73 675.61 475.73S715.79 495.79 753.17 495.79S793.97 496.17 830.73 496.17S870.98 481.79 908.29 481.79S947.67 488.51 985.85 488.51S1025.77 481.53 1063.41 481.53S1102.33 469.43 1140.98 469.43S1181.22 482.76 1218.54 482.76S1257.34 476.61 1296.1 476.61S1335.31 477.51 1373.66 477.51S1413 468.6 1451.22 468.6S1492.29 481.03 1528.78 481.03S1567.57 471.69 1606.34 471.69S1645.41 487.74 1683.9 487.74S1723.76 493.28 1761.46 493.28S1800.33 496.83 1839.02 496.83S1878.51 492.61 1916.59 492.61S1956.14 499.01 1994.15 499.01S2034.32 491.34 2071.71 491.34L2020 922 L-100 922 Z" fill="#5e276f" stroke-width="0" data-darkreader-inline-fill="" style="--darkreader-inline-fill:#4b1f59;">
  <animate attributeName="d" dur="6.930693069306931s" repeatCount="indefinite" values="M-100 469.19C-60.05 474.39 -59.12 497.33 -22.44 497.33S17.2 492.91 55.12 492.91S94.43 474.81 132.68 474.81S173.41 486.9 210.24 486.9S250.87 486.75 287.8 486.75S328.7 469.98 365.37 469.98S405.39 488.87 442.93 488.87S482.96 483.84 520.49 483.84S560.01 481.83 598.05 481.83S638 475.73 675.61 475.73S715.79 495.79 753.17 495.79S793.97 496.17 830.73 496.17S870.98 481.79 908.29 481.79S947.67 488.51 985.85 488.51S1025.77 481.53 1063.41 481.53S1102.33 469.43 1140.98 469.43S1181.22 482.76 1218.54 482.76S1257.34 476.61 1296.1 476.61S1335.31 477.51 1373.66 477.51S1413 468.6 1451.22 468.6S1492.29 481.03 1528.78 481.03S1567.57 471.69 1606.34 471.69S1645.41 487.74 1683.9 487.74S1723.76 493.28 1761.46 493.28S1800.33 496.83 1839.02 496.83S1878.51 492.61 1916.59 492.61S1956.14 499.01 1994.15 499.01S2034.32 491.34 2071.71 491.34L2020 922 L-100 922 Z;M-100 469.84C-58.94 489.2 -60.66 480.16 -22.44 480.16S17.05 485.17 55.12 485.17S96.45 487.95 132.68 487.95S172.73 492.88 210.24 492.88S249.18 504.73 287.8 504.73S328.34 471.19 365.37 471.19S406.19 497.33 442.93 497.33S483.93 478.8 520.49 478.8S561.76 481.31 598.05 481.31S639.3 503.08 675.61 503.08S716.24 496.95 753.17 496.95S793.38 476.23 830.73 476.23S869.92 491.27 908.29 491.27S948.15 468.58 985.85 468.58S1026.19 503.94 1063.41 503.94S1104.69 491.61 1140.98 491.61S1180.52 471.98 1218.54 471.98S1258.34 478.33 1296.1 478.33S1335.17 499.52 1373.66 499.52S1414.03 484.72 1451.22 484.72S1490.17 496.21 1528.78 496.21S1567.57 482.91 1606.34 482.91S1645.9 493.5 1683.9 493.5S1722.87 482.72 1761.46 482.72S1800.85 480.85 1839.02 480.85S1879.7 492.43 1916.59 492.43S1957.74 491.65 1994.15 491.65S2035.19 487.03 2071.71 487.03L2020 922 L-100 922 Z;M-100 469.19C-60.05 474.39 -59.12 497.33 -22.44 497.33S17.2 492.91 55.12 492.91S94.43 474.81 132.68 474.81S173.41 486.9 210.24 486.9S250.87 486.75 287.8 486.75S328.7 469.98 365.37 469.98S405.39 488.87 442.93 488.87S482.96 483.84 520.49 483.84S560.01 481.83 598.05 481.83S638 475.73 675.61 475.73S715.79 495.79 753.17 495.79S793.97 496.17 830.73 496.17S870.98 481.79 908.29 481.79S947.67 488.51 985.85 488.51S1025.77 481.53 1063.41 481.53S1102.33 469.43 1140.98 469.43S1181.22 482.76 1218.54 482.76S1257.34 476.61 1296.1 476.61S1335.31 477.51 1373.66 477.51S1413 468.6 1451.22 468.6S1492.29 481.03 1528.78 481.03S1567.57 471.69 1606.34 471.69S1645.41 487.74 1683.9 487.74S1723.76 493.28 1761.46 493.28S1800.33 496.83 1839.02 496.83S1878.51 492.61 1916.59 492.61S1956.14 499.01 1994.15 499.01S2034.32 491.34 2071.71 491.34L2020 922 L-100 922 Z"></animate>
  <animateTransform attributeName="transform" type="translate" dur="6.930693069306931s" begin="-1.54015401540154s" repeatCount="indefinite" values="0;10;0" calcMode="spline" keySplines="0.3 0 0.7 1;0.3 0 0.7 1"></animateTransform>
</path><path d="M-100 527.22C-58.83 527.2 -57.58 540.53 -20 540.53S21.34 516.29 60 516.29S101.51 512.42 140 512.42S182.16 509.66 220 509.66S260.85 523.28 300 523.28S340.02 509.48 380 509.48S420.62 525.15 460 525.15S501.78 514.46 540 514.46S581.56 530.25 620 530.25S660.64 529.01 700 529.01S740.7 538.25 780 538.25S820.79 518.86 860 518.86S900.68 528.48 940 528.48S982 505.49 1020 505.49S1060.76 527.3 1100 527.3S1141.95 511.09 1180 511.09S1221.6 527.34 1260 527.34S1301.72 528.56 1340 528.56S1381.57 541.84 1420 541.84S1460.01 529.28 1500 529.28S1540.47 546.09 1580 546.09S1620.99 523.88 1660 523.88S1700.98 525.18 1740 525.18S1780.9 523.03 1820 523.03S1861.41 537.13 1900 537.13S1941.27 520.89 1980 520.89S2022.52 528.28 2060 528.28L2020 922 L-100 922 Z" fill="#5c2676" stroke-width="0" data-darkreader-inline-fill="" style="--darkreader-inline-fill:#4a1e5e;">
  <animate attributeName="d" dur="5.9405940594059405s" repeatCount="indefinite" values="M-100 527.22C-58.83 527.2 -57.58 540.53 -20 540.53S21.34 516.29 60 516.29S101.51 512.42 140 512.42S182.16 509.66 220 509.66S260.85 523.28 300 523.28S340.02 509.48 380 509.48S420.62 525.15 460 525.15S501.78 514.46 540 514.46S581.56 530.25 620 530.25S660.64 529.01 700 529.01S740.7 538.25 780 538.25S820.79 518.86 860 518.86S900.68 528.48 940 528.48S982 505.49 1020 505.49S1060.76 527.3 1100 527.3S1141.95 511.09 1180 511.09S1221.6 527.34 1260 527.34S1301.72 528.56 1340 528.56S1381.57 541.84 1420 541.84S1460.01 529.28 1500 529.28S1540.47 546.09 1580 546.09S1620.99 523.88 1660 523.88S1700.98 525.18 1740 525.18S1780.9 523.03 1820 523.03S1861.41 537.13 1900 537.13S1941.27 520.89 1980 520.89S2022.52 528.28 2060 528.28L2020 922 L-100 922 Z;M-100 527.74C-59.69 517.43 -57.45 543.75 -20 543.75S20.9 530.86 60 530.86S100.69 545.29 140 545.29S180.12 510.45 220 510.45S260.37 543.28 300 543.28S340.88 505.9 380 505.9S421.45 533.4 460 533.4S501.45 522 540 522S580.17 540.29 620 540.29S662.24 524.62 700 524.62S742.46 530.42 780 530.42S820.35 524.56 860 524.56S902.46 535.36 940 535.36S980.49 526.63 1020 526.63S1060.86 507.11 1100 507.11S1142.02 516.03 1180 516.03S1220.77 540.47 1260 540.47S1302.08 511.72 1340 511.72S1380.61 532.97 1420 532.97S1460.13 531.54 1500 531.54S1541.03 532.22 1580 532.22S1622.47 510.06 1660 510.06S1702.56 528.06 1740 528.06S1781.35 504.05 1820 504.05S1861.95 532.57 1900 532.57S1940.03 509.93 1980 509.93S2021.26 543.68 2060 543.68L2020 922 L-100 922 Z;M-100 527.22C-58.83 527.2 -57.58 540.53 -20 540.53S21.34 516.29 60 516.29S101.51 512.42 140 512.42S182.16 509.66 220 509.66S260.85 523.28 300 523.28S340.02 509.48 380 509.48S420.62 525.15 460 525.15S501.78 514.46 540 514.46S581.56 530.25 620 530.25S660.64 529.01 700 529.01S740.7 538.25 780 538.25S820.79 518.86 860 518.86S900.68 528.48 940 528.48S982 505.49 1020 505.49S1060.76 527.3 1100 527.3S1141.95 511.09 1180 511.09S1221.6 527.34 1260 527.34S1301.72 528.56 1340 528.56S1381.57 541.84 1420 541.84S1460.01 529.28 1500 529.28S1540.47 546.09 1580 546.09S1620.99 523.88 1660 523.88S1700.98 525.18 1740 525.18S1780.9 523.03 1820 523.03S1861.41 537.13 1900 537.13S1941.27 520.89 1980 520.89S2022.52 528.28 2060 528.28L2020 922 L-100 922 Z"></animate>
  <animateTransform attributeName="transform" type="translate" dur="5.9405940594059405s" begin="-1.9801980198019804s" repeatCount="indefinite" values="0;10;0" calcMode="spline" keySplines="0.3 0 0.7 1;0.3 0 0.7 1"></animateTransform>
</path><path d="M-100 565.41C-58.15 549.18 -57.81 580.95 -17.4 580.95S26.18 542.19 65.19 542.19S106.64 563.51 147.79 563.51S189.16 562.8 230.39 562.8S274.16 552.91 312.99 552.91S355.64 554.68 395.58 554.68S437.49 566.9 478.18 566.9S519.71 561.34 560.78 561.34S603.42 567.88 643.38 567.88S685.75 562.76 725.97 562.76S768.34 580.3 808.57 580.3S851.47 544.69 891.17 544.69S932.63 572.26 973.77 572.26S1016.33 546.94 1056.36 546.94S1099.66 585.89 1138.96 585.89S1182.75 541.68 1221.56 541.68S1263.08 571.13 1304.16 571.13S1346.62 550.56 1386.75 550.56S1428.68 570.17 1469.35 570.17S1512.75 556.51 1551.95 556.51S1595.26 586.08 1634.55 586.08S1677.25 555.77 1717.14 555.77S1759.38 585.13 1799.74 585.13S1841.53 559.39 1882.34 559.39S1924.79 563.03 1964.94 563.03S2006.72 562.95 2047.53 562.95L2020 922 L-100 922 Z" fill="#59267e" stroke-width="0" data-darkreader-inline-fill="" style="--darkreader-inline-fill:#471e65;">
  <animate attributeName="d" dur="4.9504950495049505s" repeatCount="indefinite" values="M-100 565.41C-58.15 549.18 -57.81 580.95 -17.4 580.95S26.18 542.19 65.19 542.19S106.64 563.51 147.79 563.51S189.16 562.8 230.39 562.8S274.16 552.91 312.99 552.91S355.64 554.68 395.58 554.68S437.49 566.9 478.18 566.9S519.71 561.34 560.78 561.34S603.42 567.88 643.38 567.88S685.75 562.76 725.97 562.76S768.34 580.3 808.57 580.3S851.47 544.69 891.17 544.69S932.63 572.26 973.77 572.26S1016.33 546.94 1056.36 546.94S1099.66 585.89 1138.96 585.89S1182.75 541.68 1221.56 541.68S1263.08 571.13 1304.16 571.13S1346.62 550.56 1386.75 550.56S1428.68 570.17 1469.35 570.17S1512.75 556.51 1551.95 556.51S1595.26 586.08 1634.55 586.08S1677.25 555.77 1717.14 555.77S1759.38 585.13 1799.74 585.13S1841.53 559.39 1882.34 559.39S1924.79 563.03 1964.94 563.03S2006.72 562.95 2047.53 562.95L2020 922 L-100 922 Z;M-100 559.78C-57.41 541.35 -57.84 570.47 -17.4 570.47S24.73 560.44 65.19 560.44S107.51 580.26 147.79 580.26S189.6 563.9 230.39 563.9S272.32 546.16 312.99 546.16S354.63 557.19 395.58 557.19S437.45 581.59 478.18 581.59S521.22 574.58 560.78 574.58S604.42 580.07 643.38 580.07S685.94 555.26 725.97 555.26S769.08 577.51 808.57 577.51S851.89 560.68 891.17 560.68S934.92 581.81 973.77 581.81S1015.84 547.96 1056.36 547.96S1099.5 584.17 1138.96 584.17S1182.39 548.03 1221.56 548.03S1264.93 585.84 1304.16 585.84S1345.72 559.24 1386.75 559.24S1429.91 571.18 1469.35 571.18S1511.57 560.81 1551.95 560.81S1595.39 569.1 1634.55 569.1S1677.69 541.43 1717.14 541.43S1759.66 587.77 1799.74 587.77S1843.54 564.64 1882.34 564.64S1924.43 575.67 1964.94 575.67S2007.81 548.48 2047.53 548.48L2020 922 L-100 922 Z;M-100 565.41C-58.15 549.18 -57.81 580.95 -17.4 580.95S26.18 542.19 65.19 542.19S106.64 563.51 147.79 563.51S189.16 562.8 230.39 562.8S274.16 552.91 312.99 552.91S355.64 554.68 395.58 554.68S437.49 566.9 478.18 566.9S519.71 561.34 560.78 561.34S603.42 567.88 643.38 567.88S685.75 562.76 725.97 562.76S768.34 580.3 808.57 580.3S851.47 544.69 891.17 544.69S932.63 572.26 973.77 572.26S1016.33 546.94 1056.36 546.94S1099.66 585.89 1138.96 585.89S1182.75 541.68 1221.56 541.68S1263.08 571.13 1304.16 571.13S1346.62 550.56 1386.75 550.56S1428.68 570.17 1469.35 570.17S1512.75 556.51 1551.95 556.51S1595.26 586.08 1634.55 586.08S1677.25 555.77 1717.14 555.77S1759.38 585.13 1799.74 585.13S1841.53 559.39 1882.34 559.39S1924.79 563.03 1964.94 563.03S2006.72 562.95 2047.53 562.95L2020 922 L-100 922 Z"></animate>
  <animateTransform attributeName="transform" type="translate" dur="4.9504950495049505s" begin="-2.2002200220022003s" repeatCount="indefinite" values="0;10;0" calcMode="spline" keySplines="0.3 0 0.7 1;0.3 0 0.7 1"></animateTransform>
</path><path d="M-100 611.44C-56.55 627.54 -55.23 626.86 -14.63 626.86S29.91 591.93 70.74 591.93S113.94 616.08 156.11 616.08S200.97 582.92 241.48 582.92S285.24 619.48 326.85 619.48S370.83 582.5 412.21 582.5S455.5 622.91 497.58 622.91S541.38 599.09 582.95 599.09S626.98 616.79 668.32 616.79S712.72 589.42 753.69 589.42S798.71 616.66 839.06 616.66S883.97 597.4 924.43 597.4S968.09 611.32 1009.8 611.32S1053.03 588.95 1095.17 588.95S1138.77 612.21 1180.54 612.21S1223.61 578.29 1265.91 578.29S1310.19 625.21 1351.28 625.21S1395.92 577.27 1436.64 577.27S1480.57 625.58 1522.01 625.58S1565.16 599.59 1607.38 599.59S1650.76 615.26 1692.75 615.26S1736.68 585.44 1778.12 585.44S1823.31 591.69 1863.49 591.69S1908.33 578.16 1948.86 578.16S1993.31 626.88 2034.23 626.88L2020 922 L-100 922 Z" fill="#542686" stroke-width="0" data-darkreader-inline-fill="" style="--darkreader-inline-fill:#431e6b;">
  <animate attributeName="d" dur="3.9603960396039604s" repeatCount="indefinite" values="M-100 611.44C-56.55 627.54 -55.23 626.86 -14.63 626.86S29.91 591.93 70.74 591.93S113.94 616.08 156.11 616.08S200.97 582.92 241.48 582.92S285.24 619.48 326.85 619.48S370.83 582.5 412.21 582.5S455.5 622.91 497.58 622.91S541.38 599.09 582.95 599.09S626.98 616.79 668.32 616.79S712.72 589.42 753.69 589.42S798.71 616.66 839.06 616.66S883.97 597.4 924.43 597.4S968.09 611.32 1009.8 611.32S1053.03 588.95 1095.17 588.95S1138.77 612.21 1180.54 612.21S1223.61 578.29 1265.91 578.29S1310.19 625.21 1351.28 625.21S1395.92 577.27 1436.64 577.27S1480.57 625.58 1522.01 625.58S1565.16 599.59 1607.38 599.59S1650.76 615.26 1692.75 615.26S1736.68 585.44 1778.12 585.44S1823.31 591.69 1863.49 591.69S1908.33 578.16 1948.86 578.16S1993.31 626.88 2034.23 626.88L2020 922 L-100 922 Z;M-100 596.41C-55.66 584.39 -56.83 624.27 -14.63 624.27S29.46 597.58 70.74 597.58S114.72 628.43 156.11 628.43S200.27 584.69 241.48 584.69S285.14 624.29 326.85 624.29S370.58 578.4 412.21 578.4S455.12 618.03 497.58 618.03S540.89 598.95 582.95 598.95S627.04 608.72 668.32 608.72S711.82 577.25 753.69 577.25S798.52 611.69 839.06 611.69S882.32 586.41 924.43 586.41S968.98 629.68 1009.8 629.68S1054.08 601.06 1095.17 601.06S1139.08 622.26 1180.54 622.26S1225.46 599.52 1265.91 599.52S1309.97 618.98 1351.28 618.98S1395.49 583.82 1436.64 583.82S1480.62 621.47 1522.01 621.47S1566.95 587.21 1607.38 587.21S1651.05 629.51 1692.75 629.51S1735.67 583.56 1778.12 583.56S1822.43 612.27 1863.49 612.27S1907.15 584.94 1948.86 584.94S1992.13 623.63 2034.23 623.63L2020 922 L-100 922 Z;M-100 611.44C-56.55 627.54 -55.23 626.86 -14.63 626.86S29.91 591.93 70.74 591.93S113.94 616.08 156.11 616.08S200.97 582.92 241.48 582.92S285.24 619.48 326.85 619.48S370.83 582.5 412.21 582.5S455.5 622.91 497.58 622.91S541.38 599.09 582.95 599.09S626.98 616.79 668.32 616.79S712.72 589.42 753.69 589.42S798.71 616.66 839.06 616.66S883.97 597.4 924.43 597.4S968.09 611.32 1009.8 611.32S1053.03 588.95 1095.17 588.95S1138.77 612.21 1180.54 612.21S1223.61 578.29 1265.91 578.29S1310.19 625.21 1351.28 625.21S1395.92 577.27 1436.64 577.27S1480.57 625.58 1522.01 625.58S1565.16 599.59 1607.38 599.59S1650.76 615.26 1692.75 615.26S1736.68 585.44 1778.12 585.44S1823.31 591.69 1863.49 591.69S1908.33 578.16 1948.86 578.16S1993.31 626.88 2034.23 626.88L2020 922 L-100 922 Z"></animate>
  <animateTransform attributeName="transform" type="translate" dur="3.9603960396039604s" begin="-2.2002200220022003s" repeatCount="indefinite" values="0;10;0" calcMode="spline" keySplines="0.3 0 0.7 1;0.3 0 0.7 1"></animateTransform>
</path><path d="M-100 619.74C-54.7 622.25 -54.04 650.23 -11.67 650.23S34.11 636.23 76.67 636.23S122.05 664.31 165 664.31S210.32 623.9 253.33 623.9S299.8 652.28 341.67 652.28S386.36 627.82 430 627.82S475.53 669.43 518.33 669.43S562.52 628.2 606.67 628.2S651.91 647.14 695 647.14S740.48 634.05 783.33 634.05S828.84 656.6 871.67 656.6S918.26 623.42 960 623.42S1005.96 668.75 1048.33 668.75S1093.35 634.72 1136.67 634.72S1183.06 671.01 1225 671.01S1269.4 623.42 1313.33 623.42S1357.6 646.63 1401.67 646.63S1446.3 628.29 1490 628.29S1536.45 619.63 1578.33 619.63S1622.63 628.12 1666.67 628.12S1711.03 611.6 1755 611.6S1801.58 611.75 1843.33 611.75S1888.96 623.99 1931.67 623.99S1976.26 612.95 2020 612.95S2065.32 660.74 2108.33 660.74L2020 922 L-100 922 Z" fill="#4e278e" stroke-width="0" data-darkreader-inline-fill="" style="--darkreader-inline-fill:#3e1f72;">
  <animate attributeName="d" dur="2.9702970297029703s" repeatCount="indefinite" values="M-100 619.74C-54.7 622.25 -54.04 650.23 -11.67 650.23S34.11 636.23 76.67 636.23S122.05 664.31 165 664.31S210.32 623.9 253.33 623.9S299.8 652.28 341.67 652.28S386.36 627.82 430 627.82S475.53 669.43 518.33 669.43S562.52 628.2 606.67 628.2S651.91 647.14 695 647.14S740.48 634.05 783.33 634.05S828.84 656.6 871.67 656.6S918.26 623.42 960 623.42S1005.96 668.75 1048.33 668.75S1093.35 634.72 1136.67 634.72S1183.06 671.01 1225 671.01S1269.4 623.42 1313.33 623.42S1357.6 646.63 1401.67 646.63S1446.3 628.29 1490 628.29S1536.45 619.63 1578.33 619.63S1622.63 628.12 1666.67 628.12S1711.03 611.6 1755 611.6S1801.58 611.75 1843.33 611.75S1888.96 623.99 1931.67 623.99S1976.26 612.95 2020 612.95S2065.32 660.74 2108.33 660.74L2020 922 L-100 922 Z;M-100 624.12C-54 630.02 -55.35 669.91 -11.67 669.91S34.66 621.24 76.67 621.24S122.43 651.13 165 651.13S210.81 631.17 253.33 631.17S298.11 671.31 341.67 671.31S387.73 613.9 430 613.9S476.26 653.69 518.33 653.69S564.61 627.78 606.67 627.78S652.67 653.83 695 653.83S740.71 615.57 783.33 615.57S829.04 660.59 871.67 660.59S917.19 629.01 960 629.01S1005.41 660.29 1048.33 660.29S1093.54 636.83 1136.67 636.83S1182.1 669.32 1225 669.32S1269.77 667.97 1313.33 667.97S1357.53 666.93 1401.67 666.93S1447.11 633.82 1490 633.82S1536.39 664.68 1578.33 664.68S1623.27 619.39 1666.67 619.39S1712.01 650.71 1755 650.71S1800.01 630.6 1843.33 630.6S1888.94 658.35 1931.67 658.35S1976.86 635.4 2020 635.4S2065.5 659.09 2108.33 659.09L2020 922 L-100 922 Z;M-100 619.74C-54.7 622.25 -54.04 650.23 -11.67 650.23S34.11 636.23 76.67 636.23S122.05 664.31 165 664.31S210.32 623.9 253.33 623.9S299.8 652.28 341.67 652.28S386.36 627.82 430 627.82S475.53 669.43 518.33 669.43S562.52 628.2 606.67 628.2S651.91 647.14 695 647.14S740.48 634.05 783.33 634.05S828.84 656.6 871.67 656.6S918.26 623.42 960 623.42S1005.96 668.75 1048.33 668.75S1093.35 634.72 1136.67 634.72S1183.06 671.01 1225 671.01S1269.4 623.42 1313.33 623.42S1357.6 646.63 1401.67 646.63S1446.3 628.29 1490 628.29S1536.45 619.63 1578.33 619.63S1622.63 628.12 1666.67 628.12S1711.03 611.6 1755 611.6S1801.58 611.75 1843.33 611.75S1888.96 623.99 1931.67 623.99S1976.26 612.95 2020 612.95S2065.32 660.74 2108.33 660.74L2020 922 L-100 922 Z"></animate>
  <animateTransform attributeName="transform" type="translate" dur="2.9702970297029703s" begin="-1.9801980198019804s" repeatCount="indefinite" values="0;10;0" calcMode="spline" keySplines="0.3 0 0.7 1;0.3 0 0.7 1"></animateTransform>
</path><path d="M-100 651.89C-52.33 649.36 -54.15 691.47 -8.49 691.47S37.8 651.77 83.02 651.77S131.31 702.45 174.53 702.45S220.31 657.2 266.04 657.2S311.94 663.69 357.55 663.69S405.01 655.85 449.06 655.85S496.45 702.91 540.58 702.91S586.87 657.23 632.09 657.23S678.02 696.48 723.6 696.48S771.69 660.94 815.11 660.94S862.35 695.76 906.62 695.76S954.14 687.65 998.13 687.65S1044.84 658.64 1089.64 658.64S1136.98 657.69 1181.15 657.69S1227.73 704.25 1272.66 704.25S1319.4 666.15 1364.17 666.15S1409.93 671.58 1455.68 671.58S1503.82 647.54 1547.19 647.54S1593.56 696.68 1638.71 696.68S1686.11 659.62 1730.22 659.62S1776.51 693.76 1821.73 693.76S1868.53 654.65 1913.24 654.65S1960.36 663.33 2004.75 663.33S2050.54 649.37 2096.26 649.37L2020 922 L-100 922 Z" fill="#452897" stroke-width="0" data-darkreader-inline-fill="" style="--darkreader-inline-fill:#372079;">
  <animate attributeName="d" dur="1.9801980198019802s" repeatCount="indefinite" values="M-100 651.89C-52.33 649.36 -54.15 691.47 -8.49 691.47S37.8 651.77 83.02 651.77S131.31 702.45 174.53 702.45S220.31 657.2 266.04 657.2S311.94 663.69 357.55 663.69S405.01 655.85 449.06 655.85S496.45 702.91 540.58 702.91S586.87 657.23 632.09 657.23S678.02 696.48 723.6 696.48S771.69 660.94 815.11 660.94S862.35 695.76 906.62 695.76S954.14 687.65 998.13 687.65S1044.84 658.64 1089.64 658.64S1136.98 657.69 1181.15 657.69S1227.73 704.25 1272.66 704.25S1319.4 666.15 1364.17 666.15S1409.93 671.58 1455.68 671.58S1503.82 647.54 1547.19 647.54S1593.56 696.68 1638.71 696.68S1686.11 659.62 1730.22 659.62S1776.51 693.76 1821.73 693.76S1868.53 654.65 1913.24 654.65S1960.36 663.33 2004.75 663.33S2050.54 649.37 2096.26 649.37L2020 922 L-100 922 Z;M-100 665.18C-51.74 671.28 -54.19 693.1 -8.49 693.1S39.22 658.52 83.02 658.52S130.22 701.97 174.53 701.97S222.13 669.78 266.04 669.78S313.26 708.57 357.55 708.57S403.47 669.9 449.06 669.9S496.04 694.61 540.58 694.61S587.74 650.22 632.09 650.22S679.38 699.22 723.6 699.22S770.41 660.11 815.11 660.11S862.07 706.62 906.62 706.62S954.15 651.68 998.13 651.68S1044.14 711.32 1089.64 711.32S1137.38 706.3 1181.15 706.3S1228.65 709.2 1272.66 709.2S1320.63 647.91 1364.17 647.91S1412.28 711.27 1455.68 711.27S1501.8 649.49 1547.19 649.49S1594.62 702.29 1638.71 702.29S1686.19 669.28 1730.22 669.28S1776 712.28 1821.73 712.28S1869.05 668.91 1913.24 668.91S1960.82 689.93 2004.75 689.93S2051.97 665.52 2096.26 665.52L2020 922 L-100 922 Z;M-100 651.89C-52.33 649.36 -54.15 691.47 -8.49 691.47S37.8 651.77 83.02 651.77S131.31 702.45 174.53 702.45S220.31 657.2 266.04 657.2S311.94 663.69 357.55 663.69S405.01 655.85 449.06 655.85S496.45 702.91 540.58 702.91S586.87 657.23 632.09 657.23S678.02 696.48 723.6 696.48S771.69 660.94 815.11 660.94S862.35 695.76 906.62 695.76S954.14 687.65 998.13 687.65S1044.84 658.64 1089.64 658.64S1136.98 657.69 1181.15 657.69S1227.73 704.25 1272.66 704.25S1319.4 666.15 1364.17 666.15S1409.93 671.58 1455.68 671.58S1503.82 647.54 1547.19 647.54S1593.56 696.68 1638.71 696.68S1686.11 659.62 1730.22 659.62S1776.51 693.76 1821.73 693.76S1868.53 654.65 1913.24 654.65S1960.36 663.33 2004.75 663.33S2050.54 649.37 2096.26 649.37L2020 922 L-100 922 Z"></animate>
  <animateTransform attributeName="transform" type="translate" dur="1.9801980198019802s" begin="-1.54015401540154s" repeatCount="indefinite" values="0;10;0" calcMode="spline" keySplines="0.3 0 0.7 1;0.3 0 0.7 1"></animateTransform>
</path><path d="M-100 703.46C-51.81 698.23 -50.77 734.05 -5.07 734.05S43.33 699.09 89.85 699.09S139.01 732.24 184.78 732.24S233.48 687.28 279.7 687.28S327.4 749.2 374.63 749.2S423.5 692.09 469.55 692.09S517.24 747.87 564.48 747.87S612.95 694.81 659.4 694.81S709.02 734.22 754.33 734.22S802.67 693.13 849.25 693.13S897.46 748.39 944.18 748.39S992.08 696.13 1039.1 696.13S1087.6 741.27 1134.03 741.27S1183.57 704.74 1228.96 704.74S1278.31 731.31 1323.88 731.31S1372.49 705.58 1418.81 705.58S1467.11 752.35 1513.73 752.35S1562.44 684.08 1608.66 684.08S1658.3 732.41 1703.58 732.41S1752.85 688.15 1798.51 688.15S1847.91 734.31 1893.43 734.31S1942.6 685.09 1988.36 685.09S2037.38 751.88 2083.28 751.88L2020 922 L-100 922 Z" fill="#392a9f" stroke-width="0" data-darkreader-inline-fill="" style="--darkreader-inline-fill:#2e227f;">
  <animate attributeName="d" dur="0.9900990099009901s" repeatCount="indefinite" values="M-100 703.46C-51.81 698.23 -50.77 734.05 -5.07 734.05S43.33 699.09 89.85 699.09S139.01 732.24 184.78 732.24S233.48 687.28 279.7 687.28S327.4 749.2 374.63 749.2S423.5 692.09 469.55 692.09S517.24 747.87 564.48 747.87S612.95 694.81 659.4 694.81S709.02 734.22 754.33 734.22S802.67 693.13 849.25 693.13S897.46 748.39 944.18 748.39S992.08 696.13 1039.1 696.13S1087.6 741.27 1134.03 741.27S1183.57 704.74 1228.96 704.74S1278.31 731.31 1323.88 731.31S1372.49 705.58 1418.81 705.58S1467.11 752.35 1513.73 752.35S1562.44 684.08 1608.66 684.08S1658.3 732.41 1703.58 732.41S1752.85 688.15 1798.51 688.15S1847.91 734.31 1893.43 734.31S1942.6 685.09 1988.36 685.09S2037.38 751.88 2083.28 751.88L2020 922 L-100 922 Z;M-100 684.36C-50.79 697.59 -51.11 743.37 -5.07 743.37S42.79 693.64 89.85 693.64S139.44 696.97 184.78 696.97S234.53 700.01 279.7 700.01S327.69 691.32 374.63 691.32S423.89 705.41 469.55 705.41S517.85 733.3 564.48 733.3S613.5 736.32 659.4 736.32S708.65 696.07 754.33 696.07S803.66 702.1 849.25 702.1S898.32 708.67 944.18 708.67S993.47 735.09 1039.1 735.09S1086.81 685.15 1134.03 685.15S1183.61 701.41 1228.96 701.41S1277.63 735.48 1323.88 735.48S1371.74 690.5 1418.81 690.5S1466.72 745.45 1513.73 745.45S1563.75 739.31 1608.66 739.31S1657.36 732.19 1703.58 732.19S1752.43 693.37 1798.51 693.37S1847.06 700.41 1893.43 700.41S1940.99 708.41 1988.36 708.41S2036.95 691.29 2083.28 691.29L2020 922 L-100 922 Z;M-100 703.46C-51.81 698.23 -50.77 734.05 -5.07 734.05S43.33 699.09 89.85 699.09S139.01 732.24 184.78 732.24S233.48 687.28 279.7 687.28S327.4 749.2 374.63 749.2S423.5 692.09 469.55 692.09S517.24 747.87 564.48 747.87S612.95 694.81 659.4 694.81S709.02 734.22 754.33 734.22S802.67 693.13 849.25 693.13S897.46 748.39 944.18 748.39S992.08 696.13 1039.1 696.13S1087.6 741.27 1134.03 741.27S1183.57 704.74 1228.96 704.74S1278.31 731.31 1323.88 731.31S1372.49 705.58 1418.81 705.58S1467.11 752.35 1513.73 752.35S1562.44 684.08 1608.66 684.08S1658.3 732.41 1703.58 732.41S1752.85 688.15 1798.51 688.15S1847.91 734.31 1893.43 734.31S1942.6 685.09 1988.36 685.09S2037.38 751.88 2083.28 751.88L2020 922 L-100 922 Z"></animate>
  <animateTransform attributeName="transform" type="translate" dur="0.9900990099009901s" begin="-0.8800880088008801s" repeatCount="indefinite" values="0;10;0" calcMode="spline" keySplines="0.3 0 0.7 1;0.3 0 0.7 1"></animateTransform>
</path></g>
</svg>